<svg width="381" height="71" viewBox="0 0 381 71" fill="none" xmlns="http://www.w3.org/2000/svg">
<path d="M52.784 51.424C52.784 51.904 52.28 52.144 51.272 52.144H50.48C49.808 52.144 48.584 52.12 46.808 52.072C45.032 52.024 43.664 52 42.704 52C41.264 52 39.584 52.024 37.664 52.072C35.696 52.072 34.4 52.072 33.776 52.072H33.272C32.264 52.072 31.76 51.856 31.76 51.424C31.76 50.944 32.456 50.704 33.848 50.704C36.296 50.704 37.784 50.44 38.312 49.912C38.552 49.672 38.672 48.064 38.672 45.088V7.792C38.672 7.84 38.408 8.68 37.88 10.312C35.96 16.12 33.176 24.856 29.528 36.52L26.144 47.968C25.472 50.224 24.992 51.352 24.704 51.352C24.368 51.352 24.008 50.776 23.624 49.624C22.232 45.256 18.296 34.36 11.816 16.936L8.936 9.232C8.984 10.144 9.008 11.392 9.008 12.976V36.376C9.008 45.16 9.08 49.6 9.224 49.696C9.56 50.32 10.712 50.632 12.68 50.632C14.264 50.632 15.056 50.848 15.056 51.28C15.056 51.76 14.552 52 13.544 52C12.92 52 12.344 51.976 11.816 51.928C11.144 51.88 10.544 51.856 10.016 51.856L1.736 52.072C0.872 52.072 0.44 51.856 0.44 51.424C0.44 50.944 1.808 50.68 4.544 50.632C5.696 50.632 6.368 50.44 6.56 50.056C6.752 49.672 6.848 48.424 6.848 46.312V11.824C6.848 7.84 6.8 5.68 6.704 5.344C6.512 4.672 6.104 4.216 5.48 3.976C4.856 3.736 3.512 3.544 1.448 3.4C0.68 3.352 0.296 3.136 0.296 2.752C0.296 2.224 0.992 1.96 2.384 1.96C2.576 1.96 2.984 1.984 3.608 2.032H7.352C10.184 2.032 12.176 2.008 13.328 1.96C13.568 2.584 14.984 6.352 17.576 13.264C18.68 16.144 21.776 24.544 26.864 38.464C27.776 35.344 28.712 32.272 29.672 29.248L37.304 5.416C37.736 4.024 38.12 2.872 38.456 1.96L49.256 1.888C50.84 1.888 51.752 1.96 51.992 2.104C52.232 2.248 52.352 2.464 52.352 2.752C52.352 3.232 51.944 3.472 51.128 3.472C49.784 3.472 48.872 3.52 48.392 3.616C47.24 3.808 46.448 4.192 46.016 4.768C45.776 5.104 45.656 7.912 45.656 13.192V46.672C45.656 48.592 45.848 49.72 46.232 50.056C46.856 50.488 48.416 50.704 50.912 50.704H51.344C52.304 50.704 52.784 50.944 52.784 51.424ZM84.2396 48.76C84.2396 49.576 83.3756 50.44 81.6476 51.352C79.9676 52.216 78.3356 52.648 76.7516 52.648C73.4396 52.648 71.7116 50.944 71.5676 47.536C69.7436 51.088 66.9116 52.864 63.0716 52.864C61.0076 52.864 59.3036 52.264 57.9596 51.064C56.6156 49.816 55.9436 48.232 55.9436 46.312C55.9436 42.376 58.3196 39.256 63.0716 36.952C64.7036 36.184 67.5356 35.416 71.5676 34.648V32.848C71.5676 28.624 71.3516 25.84 70.9196 24.496C70.1516 22.048 68.4236 20.824 65.7356 20.824C64.0556 20.824 62.6396 21.28 61.4876 22.192C60.3836 23.104 59.8316 24.256 59.8316 25.648C59.8316 26.032 60.1196 26.224 60.6956 26.224C61.3196 26.224 61.8716 26.512 62.3516 27.088C62.8316 27.664 63.0716 28.312 63.0716 29.032C63.0716 31.144 62.0156 32.2 59.9036 32.2C58.7996 32.2 57.8876 31.84 57.1676 31.12C56.4476 30.352 56.0876 29.392 56.0876 28.24C56.0876 25.984 56.9756 24.04 58.7516 22.408C60.7196 20.632 63.4556 19.744 66.9596 19.744C72.2396 19.744 75.4796 21.184 76.6796 24.064C77.1116 25.168 77.3276 27.352 77.3276 30.616V44.08C77.3276 46.288 77.3516 47.584 77.3996 47.968C77.6396 49.696 78.3356 50.56 79.4876 50.56C80.8316 50.56 81.9356 50.08 82.7996 49.12C83.2796 48.592 83.6396 48.328 83.8796 48.328C84.1196 48.328 84.2396 48.472 84.2396 48.76ZM71.5676 41.128V35.872C67.9676 36.688 65.3756 37.768 63.7916 39.112C62.2556 40.408 61.4876 42.16 61.4876 44.368C61.4876 45.904 61.9196 47.176 62.7836 48.184C63.6956 49.144 64.8236 49.624 66.1676 49.624C68.2316 49.624 69.8876 48.472 71.1356 46.168C71.4236 45.64 71.5676 43.96 71.5676 41.128ZM103.785 47.752C103.785 48.184 103.185 48.952 101.985 50.056C99.9208 51.928 97.4728 52.864 94.6408 52.864C92.0008 52.864 90.0088 52.192 88.6648 50.848C87.8968 50.08 87.5128 47.824 87.5128 44.08V22.624C87.4648 22.144 87.2008 21.88 86.7207 21.832H83.9848C82.9288 21.832 82.4008 21.664 82.4008 21.328C82.4008 20.992 82.6648 20.8 83.1928 20.752C86.9368 20.416 89.8648 18.592 91.9768 15.28C92.2648 14.848 92.6248 14.632 93.0568 14.632C93.3928 14.632 93.5608 14.8 93.5608 15.136V15.424C93.5128 15.664 93.4888 16.072 93.4888 16.648C93.4888 18.664 93.5848 19.96 93.7768 20.536C94.2088 20.632 94.9288 20.68 95.9368 20.68C98.5768 20.68 100.329 20.56 101.193 20.32C101.385 20.272 101.553 20.248 101.697 20.248C102.081 20.248 102.273 20.464 102.273 20.896C102.273 21.616 100.329 21.976 96.4408 21.976C95.7688 21.976 94.7848 21.952 93.4888 21.904V35.224C93.4888 41.944 93.6568 46.168 93.9928 47.896C94.3288 49.576 95.4328 50.416 97.3048 50.416C98.8888 50.416 100.665 49.528 102.633 47.752C102.825 47.512 103.041 47.392 103.281 47.392C103.617 47.392 103.785 47.512 103.785 47.752ZM130.87 27.16C130.87 29.368 129.79 30.472 127.63 30.472C125.518 30.472 124.462 29.464 124.462 27.448C124.462 26.92 124.702 26.128 125.182 25.072C125.326 24.736 125.398 24.4 125.398 24.064C125.398 23.104 124.894 22.312 123.886 21.688C122.926 21.064 121.702 20.752 120.214 20.752C117.334 20.752 115.102 22 113.518 24.496C111.934 26.992 111.142 30.496 111.142 35.008C111.142 40.096 111.958 44.032 113.59 46.816C115.222 49.552 117.526 50.92 120.502 50.92C122.518 50.92 124.318 50.296 125.902 49.048C126.622 48.472 127.558 47.368 128.71 45.736C128.95 45.496 129.166 45.376 129.358 45.376C129.838 45.376 130.078 45.568 130.078 45.952C130.078 46.576 129.238 47.752 127.558 49.48C125.398 51.736 122.638 52.864 119.278 52.864C115.054 52.864 111.55 51.352 108.766 48.328C106.03 45.304 104.662 41.488 104.662 36.88C104.662 31.936 106.126 27.856 109.054 24.64C111.982 21.376 115.654 19.744 120.07 19.744C122.902 19.744 125.398 20.488 127.558 21.976C129.766 23.464 130.87 25.192 130.87 27.16ZM166.019 51.568C166.019 51.952 165.611 52.144 164.795 52.144C164.411 52.144 164.051 52.12 163.715 52.072C162.035 52.12 158.291 52.144 152.483 52.144H151.691C151.067 52.144 150.755 51.952 150.755 51.568C150.755 51.232 151.667 51.064 153.491 51.064C154.595 51.064 155.219 50.944 155.363 50.704C155.555 50.416 155.651 49.504 155.651 47.968V33.352C155.651 28.984 155.459 26.272 155.075 25.216C154.259 23.008 152.459 21.904 149.675 21.904C147.371 21.904 145.499 22.936 144.059 25C143.579 25.672 143.339 27.16 143.339 29.464V47.824C143.339 49.12 143.363 49.864 143.411 50.056C143.459 50.536 143.651 50.824 143.987 50.92C144.323 50.968 145.355 51.016 147.083 51.064C147.659 51.064 147.947 51.256 147.947 51.64C147.947 51.976 147.707 52.144 147.227 52.144C147.227 52.144 146.987 52.12 146.507 52.072L140.819 52C136.835 51.952 134.627 52 134.195 52.144H133.475C132.947 52.144 132.683 51.976 132.683 51.64C132.683 51.256 132.947 51.064 133.475 51.064H134.555L135.635 50.992C136.739 51.04 137.315 50.704 137.363 49.984V17.656C137.363 9.976 137.243 5.824 137.003 5.2C136.715 4.72 135.539 4.456 133.475 4.408C132.323 4.408 131.747 4.24 131.747 3.904C131.747 3.616 131.867 3.448 132.107 3.4C132.347 3.352 133.163 3.304 134.555 3.256C137.003 3.208 139.355 2.632 141.611 1.528C141.803 1.432 142.139 1.312 142.619 1.168C142.955 1.744 143.123 3.592 143.123 6.712V24.352C145.235 21.28 148.115 19.744 151.763 19.744C155.603 19.744 158.339 20.8 159.971 22.912C160.787 23.968 161.291 25.456 161.483 27.376C161.579 28.048 161.627 29.656 161.627 32.2V50.344C161.675 50.824 162.923 51.064 165.371 51.064C165.803 51.16 166.019 51.328 166.019 51.568ZM219.987 51.424C219.987 51.904 219.483 52.144 218.475 52.144H217.683C217.011 52.144 215.787 52.12 214.011 52.072C212.235 52.024 210.867 52 209.907 52C208.467 52 206.787 52.024 204.867 52.072C202.899 52.072 201.603 52.072 200.979 52.072H200.475C199.467 52.072 198.963 51.856 198.963 51.424C198.963 50.944 199.659 50.704 201.051 50.704C203.499 50.704 204.987 50.44 205.515 49.912C205.755 49.672 205.875 48.064 205.875 45.088V7.792C205.875 7.84 205.611 8.68 205.083 10.312C203.163 16.12 200.379 24.856 196.731 36.52L193.347 47.968C192.675 50.224 192.195 51.352 191.907 51.352C191.571 51.352 191.211 50.776 190.827 49.624C189.435 45.256 185.499 34.36 179.019 16.936L176.139 9.232C176.187 10.144 176.211 11.392 176.211 12.976V36.376C176.211 45.16 176.283 49.6 176.427 49.696C176.763 50.32 177.915 50.632 179.883 50.632C181.467 50.632 182.259 50.848 182.259 51.28C182.259 51.76 181.755 52 180.747 52C180.123 52 179.547 51.976 179.019 51.928C178.347 51.88 177.747 51.856 177.219 51.856L168.939 52.072C168.075 52.072 167.643 51.856 167.643 51.424C167.643 50.944 169.011 50.68 171.747 50.632C172.899 50.632 173.571 50.44 173.763 50.056C173.955 49.672 174.051 48.424 174.051 46.312V11.824C174.051 7.84 174.003 5.68 173.907 5.344C173.715 4.672 173.307 4.216 172.683 3.976C172.059 3.736 170.715 3.544 168.651 3.4C167.883 3.352 167.499 3.136 167.499 2.752C167.499 2.224 168.195 1.96 169.587 1.96C169.779 1.96 170.187 1.984 170.811 2.032H174.555C177.387 2.032 179.379 2.008 180.531 1.96C180.771 2.584 182.187 6.352 184.779 13.264C185.883 16.144 188.979 24.544 194.067 38.464C194.979 35.344 195.915 32.272 196.875 29.248L204.507 5.416C204.939 4.024 205.323 2.872 205.659 1.96L216.459 1.888C218.043 1.888 218.955 1.96 219.195 2.104C219.435 2.248 219.555 2.464 219.555 2.752C219.555 3.232 219.147 3.472 218.331 3.472C216.987 3.472 216.075 3.52 215.595 3.616C214.443 3.808 213.651 4.192 213.219 4.768C212.979 5.104 212.859 7.912 212.859 13.192V46.672C212.859 48.592 213.051 49.72 213.435 50.056C214.059 50.488 215.619 50.704 218.115 50.704H218.547C219.507 50.704 219.987 50.944 219.987 51.424ZM251.083 21.112C251.083 21.448 250.507 21.64 249.355 21.688C248.203 21.736 247.459 21.832 247.123 21.976C246.835 22.12 246.571 22.528 246.331 23.2L245.827 24.496L245.251 26.296C244.579 28.504 243.571 31.792 242.227 36.16C238.435 48.352 235.291 57.808 232.795 64.528C231.259 68.608 229.147 70.648 226.459 70.648C225.307 70.648 224.347 70.312 223.579 69.64C222.859 68.968 222.499 68.104 222.499 67.048C222.499 66.136 222.787 65.392 223.363 64.816C223.987 64.24 224.779 63.952 225.739 63.952C227.035 63.952 227.971 64.48 228.547 65.536C228.979 66.352 229.339 66.76 229.627 66.76C230.059 66.76 230.731 65.584 231.643 63.232C232.987 59.728 234.043 56.584 234.811 53.8C231.259 44.488 228.235 36.352 225.739 29.392C224.011 24.64 223.051 22.24 222.859 22.192C222.571 21.952 221.803 21.832 220.555 21.832C219.259 21.832 218.611 21.592 218.611 21.112C218.611 20.728 218.923 20.536 219.547 20.536C220.075 20.536 220.891 20.584 221.995 20.68C223.099 20.728 223.939 20.752 224.515 20.752C224.707 20.752 225.139 20.752 225.811 20.752C226.819 20.704 228.211 20.656 229.987 20.608L233.659 20.536C234.187 20.536 234.451 20.728 234.451 21.112C234.451 21.448 233.563 21.64 231.787 21.688C230.299 21.736 229.555 21.976 229.555 22.408C229.555 22.792 230.035 24.28 230.995 26.872C231.379 27.976 231.787 29.128 232.219 30.328L233.443 33.928C233.779 34.984 234.667 37.384 236.107 41.128C236.587 42.28 237.115 43.672 237.691 45.304C242.299 30.856 244.603 23.272 244.603 22.552C244.603 22.12 244.411 21.856 244.027 21.76C243.691 21.664 242.683 21.616 241.003 21.616C240.523 21.616 240.283 21.424 240.283 21.04C240.283 20.704 240.571 20.536 241.147 20.536C241.387 20.536 241.579 20.56 241.723 20.608C243.355 20.704 244.699 20.752 245.755 20.752H247.771C248.635 20.752 249.187 20.728 249.427 20.68C249.715 20.632 250.051 20.608 250.435 20.608C250.867 20.608 251.083 20.776 251.083 21.112ZM283.221 37.96C283.221 42.088 281.637 45.616 278.469 48.544C275.349 51.424 271.581 52.864 267.165 52.864C264.573 52.864 261.477 52.072 257.877 50.488C256.917 50.056 256.197 49.84 255.717 49.84C255.141 49.84 254.781 50.536 254.637 51.928C254.589 52.648 254.277 53.008 253.701 53.008C253.221 53.008 252.981 52.72 252.981 52.144C252.981 51.76 253.005 51.472 253.053 51.28C253.437 48.352 253.629 45.64 253.629 43.144C253.629 42.664 253.581 41.32 253.485 39.112C253.437 38.824 253.413 38.44 253.413 37.96C253.413 37.24 253.701 36.88 254.277 36.88C254.757 36.88 255.093 37.456 255.285 38.608C256.533 47.152 260.589 51.424 267.453 51.424C270.381 51.424 272.637 50.608 274.221 48.976C275.853 47.296 276.669 44.944 276.669 41.92C276.669 39.232 275.877 36.952 274.293 35.08C272.757 33.16 270.093 31.264 266.301 29.392C261.741 27.136 258.573 24.952 256.797 22.84C255.021 20.728 254.133 18.112 254.133 14.992C254.133 11.008 255.405 7.72 257.949 5.128C260.541 2.536 263.805 1.24 267.741 1.24C269.373 1.24 271.629 1.792 274.509 2.896C275.517 3.28 276.261 3.472 276.741 3.472C277.269 3.472 277.605 3.376 277.749 3.184C277.941 2.992 278.109 2.488 278.253 1.672C278.349 1.192 278.613 0.951996 279.045 0.951996C279.525 0.951996 279.765 1.24 279.765 1.816C279.765 2.2 279.741 2.488 279.693 2.68C279.549 3.832 279.477 5.224 279.477 6.856C279.477 9.16 279.597 10.984 279.837 12.328L279.909 13.48C279.957 14.008 279.741 14.272 279.261 14.272C278.733 14.272 278.373 13.72 278.181 12.616C277.653 9.784 276.405 7.432 274.437 5.56C272.469 3.64 270.261 2.68 267.813 2.68C265.413 2.68 263.493 3.448 262.053 4.984C260.661 6.52 259.965 8.608 259.965 11.248C259.965 14.32 260.997 16.792 263.061 18.664C264.213 19.72 266.709 21.208 270.549 23.128C275.061 25.384 278.301 27.688 280.269 30.04C282.237 32.344 283.221 34.984 283.221 37.96ZM307.129 47.752C307.129 48.184 306.529 48.952 305.329 50.056C303.265 51.928 300.817 52.864 297.985 52.864C295.345 52.864 293.353 52.192 292.009 50.848C291.241 50.08 290.857 47.824 290.857 44.08V22.624C290.809 22.144 290.545 21.88 290.064 21.832H287.329C286.273 21.832 285.745 21.664 285.745 21.328C285.745 20.992 286.009 20.8 286.537 20.752C290.281 20.416 293.209 18.592 295.321 15.28C295.609 14.848 295.969 14.632 296.401 14.632C296.737 14.632 296.905 14.8 296.905 15.136V15.424C296.857 15.664 296.833 16.072 296.833 16.648C296.833 18.664 296.929 19.96 297.121 20.536C297.553 20.632 298.273 20.68 299.281 20.68C301.921 20.68 303.673 20.56 304.537 20.32C304.729 20.272 304.897 20.248 305.041 20.248C305.425 20.248 305.617 20.464 305.617 20.896C305.617 21.616 303.673 21.976 299.785 21.976C299.113 21.976 298.129 21.952 296.833 21.904V35.224C296.833 41.944 297.001 46.168 297.337 47.896C297.673 49.576 298.777 50.416 300.649 50.416C302.233 50.416 304.009 49.528 305.977 47.752C306.169 47.512 306.385 47.392 306.625 47.392C306.961 47.392 307.129 47.512 307.129 47.752ZM336.301 21.112C336.301 21.448 335.725 21.64 334.573 21.688C333.421 21.736 332.677 21.832 332.341 21.976C332.053 22.12 331.789 22.528 331.549 23.2L331.045 24.496L330.469 26.296C329.797 28.504 328.789 31.792 327.445 36.16C323.653 48.352 320.509 57.808 318.013 64.528C316.477 68.608 314.365 70.648 311.677 70.648C310.525 70.648 309.565 70.312 308.797 69.64C308.077 68.968 307.717 68.104 307.717 67.048C307.717 66.136 308.005 65.392 308.581 64.816C309.205 64.24 309.997 63.952 310.957 63.952C312.253 63.952 313.189 64.48 313.765 65.536C314.197 66.352 314.557 66.76 314.845 66.76C315.277 66.76 315.949 65.584 316.861 63.232C318.205 59.728 319.261 56.584 320.029 53.8C316.477 44.488 313.453 36.352 310.957 29.392C309.229 24.64 308.269 22.24 308.077 22.192C307.789 21.952 307.021 21.832 305.773 21.832C304.477 21.832 303.829 21.592 303.829 21.112C303.829 20.728 304.141 20.536 304.765 20.536C305.293 20.536 306.109 20.584 307.213 20.68C308.317 20.728 309.157 20.752 309.733 20.752C309.925 20.752 310.357 20.752 311.029 20.752C312.037 20.704 313.429 20.656 315.205 20.608L318.877 20.536C319.405 20.536 319.669 20.728 319.669 21.112C319.669 21.448 318.781 21.64 317.005 21.688C315.517 21.736 314.773 21.976 314.773 22.408C314.773 22.792 315.253 24.28 316.213 26.872C316.597 27.976 317.005 29.128 317.437 30.328L318.661 33.928C318.997 34.984 319.885 37.384 321.325 41.128C321.805 42.28 322.333 43.672 322.909 45.304C327.517 30.856 329.821 23.272 329.821 22.552C329.821 22.12 329.629 21.856 329.245 21.76C328.909 21.664 327.901 21.616 326.221 21.616C325.741 21.616 325.501 21.424 325.501 21.04C325.501 20.704 325.789 20.536 326.365 20.536C326.605 20.536 326.797 20.56 326.941 20.608C328.573 20.704 329.917 20.752 330.973 20.752H332.989C333.853 20.752 334.405 20.728 334.645 20.68C334.933 20.632 335.269 20.608 335.653 20.608C336.085 20.608 336.301 20.776 336.301 21.112ZM350.944 51.496C350.944 51.928 350.632 52.144 350.008 52.144H349.144C349.048 52.144 347.776 52.096 345.328 52L343.096 51.928C342.712 51.928 340.792 52 337.336 52.144C337.048 52.192 336.76 52.216 336.472 52.216C335.752 52.264 335.392 52.048 335.392 51.568C335.392 51.232 335.656 51.064 336.184 51.064H338.056C339.4 51.064 340.072 50.776 340.072 50.2C340.12 49.912 340.144 48.04 340.144 44.584V7.936C340.144 6.352 340.096 5.488 340 5.344C339.856 4.96 339.472 4.768 338.848 4.768H338.272L336.256 4.84C335.584 4.84 335.248 4.624 335.248 4.192C335.248 3.808 335.848 3.592 337.048 3.544C339.352 3.4 341.488 2.872 343.456 1.96L344.968 1.24L345.544 1.024C345.928 2.416 346.096 4.528 346.048 7.36L345.976 12.472L346.048 47.752C346.048 49.192 346.072 50.056 346.12 50.344C346.168 50.584 346.336 50.752 346.624 50.848C346.672 50.896 347.56 50.944 349.288 50.992C350.392 50.992 350.944 51.16 350.944 51.496ZM380.705 44.152C380.705 44.632 380.321 45.496 379.553 46.744C378.833 47.944 378.089 48.928 377.321 49.696C375.257 51.808 372.497 52.864 369.041 52.864C364.721 52.864 361.097 51.304 358.169 48.184C355.289 45.064 353.849 41.2 353.849 36.592C353.849 31.792 355.217 27.784 357.953 24.568C360.737 21.352 364.193 19.744 368.321 19.744C371.729 19.744 374.585 20.752 376.889 22.768C379.193 24.736 380.417 27.28 380.561 30.4C379.025 30.64 376.985 30.736 374.441 30.688L369.401 30.616C369.065 30.616 366.185 30.688 360.761 30.832C360.521 32.416 360.401 33.928 360.401 35.368C360.401 40.216 361.313 43.96 363.137 46.6C365.009 49.192 367.625 50.488 370.985 50.488C372.905 50.488 374.441 50.056 375.593 49.192C376.745 48.328 377.993 46.672 379.337 44.224C379.529 43.84 379.793 43.648 380.129 43.648C380.513 43.648 380.705 43.816 380.705 44.152ZM374.441 29.464C374.249 23.704 372.185 20.824 368.249 20.824C364.361 20.824 361.937 23.704 360.977 29.464H374.441Z" fill="white"/>
</svg>
